<mxfile host="app.diagrams.net" modified="2022-08-12T08:44:20.679Z" agent="5.0 (Windows NT 10.0; Win64; x64) AppleWebKit/537.36 (KHTML, like Gecko) Chrome/103.0.0.0 Safari/537.36" etag="vQdPpVr5HNRXdN02CXaU" version="20.0.4" type="github">
  <diagram id="Etl3nPAd18TX28ZEUpS_" name="Page-1">
    <mxGraphModel dx="4933" dy="2877" grid="1" gridSize="13" guides="1" tooltips="1" connect="1" arrows="1" fold="1" page="1" pageScale="1" pageWidth="1169" pageHeight="827" math="0" shadow="0">
      <root>
        <mxCell id="0" />
        <mxCell id="1" parent="0" />
        <mxCell id="zQnf5BKZiq_Y63WzG17X-1" value="Exposition" style="swimlane;fontStyle=1;align=center;verticalAlign=top;childLayout=stackLayout;horizontal=1;startSize=26;horizontalStack=0;resizeParent=1;resizeParentMax=0;resizeLast=0;collapsible=1;marginBottom=0;rounded=1;fontSize=17;" parent="1" vertex="1">
          <mxGeometry x="-20" y="-650" width="160" height="60" as="geometry">
            <mxRectangle x="600" y="310" width="90" height="26" as="alternateBounds" />
          </mxGeometry>
        </mxCell>
        <mxCell id="zQnf5BKZiq_Y63WzG17X-2" value="+ niveau: real" style="text;strokeColor=none;fillColor=none;align=left;verticalAlign=top;spacingLeft=4;spacingRight=4;overflow=hidden;rotatable=0;points=[[0,0.5],[1,0.5]];portConstraint=eastwest;rounded=1;fontSize=17;" parent="zQnf5BKZiq_Y63WzG17X-1" vertex="1">
          <mxGeometry y="26" width="160" height="26" as="geometry" />
        </mxCell>
        <mxCell id="zQnf5BKZiq_Y63WzG17X-3" value="" style="line;strokeWidth=1;fillColor=none;align=left;verticalAlign=middle;spacingTop=-1;spacingLeft=3;spacingRight=3;rotatable=0;labelPosition=right;points=[];portConstraint=eastwest;rounded=1;fontSize=17;" parent="zQnf5BKZiq_Y63WzG17X-1" vertex="1">
          <mxGeometry y="52" width="160" height="8" as="geometry" />
        </mxCell>
        <mxCell id="zQnf5BKZiq_Y63WzG17X-4" style="edgeStyle=orthogonalEdgeStyle;shape=connector;orthogonalLoop=1;jettySize=auto;html=1;entryX=0.5;entryY=0;entryDx=0;entryDy=0;fontFamily=Helvetica;fontSize=17;endArrow=none;endFill=0;exitX=0.75;exitY=1;exitDx=0;exitDy=0;rounded=1;" parent="1" source="zQnf5BKZiq_Y63WzG17X-6" target="zQnf5BKZiq_Y63WzG17X-20" edge="1">
          <mxGeometry relative="1" as="geometry" />
        </mxCell>
        <mxCell id="zQnf5BKZiq_Y63WzG17X-5" value="classifié par" style="edgeLabel;html=1;align=center;verticalAlign=middle;resizable=0;points=[];fontSize=17;fontFamily=Helvetica;rounded=1;" parent="zQnf5BKZiq_Y63WzG17X-4" vertex="1" connectable="0">
          <mxGeometry x="0.2345" relative="1" as="geometry">
            <mxPoint as="offset" />
          </mxGeometry>
        </mxCell>
        <mxCell id="zQnf5BKZiq_Y63WzG17X-6" value="Enjeu" style="swimlane;fontStyle=1;align=center;verticalAlign=top;childLayout=stackLayout;horizontal=1;startSize=26;horizontalStack=0;resizeParent=1;resizeParentMax=0;resizeLast=0;collapsible=1;marginBottom=0;rounded=1;fontSize=17;" parent="1" vertex="1">
          <mxGeometry x="347.5" y="-840" width="160" height="60" as="geometry" />
        </mxCell>
        <mxCell id="zQnf5BKZiq_Y63WzG17X-7" value="+ vulnérabilité: real" style="text;strokeColor=none;fillColor=none;align=left;verticalAlign=top;spacingLeft=4;spacingRight=4;overflow=hidden;rotatable=0;points=[[0,0.5],[1,0.5]];portConstraint=eastwest;rounded=1;fontSize=17;" parent="zQnf5BKZiq_Y63WzG17X-6" vertex="1">
          <mxGeometry y="26" width="160" height="26" as="geometry" />
        </mxCell>
        <mxCell id="zQnf5BKZiq_Y63WzG17X-8" value="" style="line;strokeWidth=1;fillColor=none;align=left;verticalAlign=middle;spacingTop=-1;spacingLeft=3;spacingRight=3;rotatable=0;labelPosition=right;points=[];portConstraint=eastwest;rounded=1;fontSize=17;" parent="zQnf5BKZiq_Y63WzG17X-6" vertex="1">
          <mxGeometry y="52" width="160" height="8" as="geometry" />
        </mxCell>
        <mxCell id="zQnf5BKZiq_Y63WzG17X-9" value="Aléa" style="swimlane;fontStyle=1;align=center;verticalAlign=top;childLayout=stackLayout;horizontal=1;startSize=26;horizontalStack=0;resizeParent=1;resizeParentMax=0;resizeLast=0;collapsible=1;marginBottom=0;rounded=1;fontSize=17;" parent="1" vertex="1">
          <mxGeometry x="-380" y="-849" width="160" height="78" as="geometry" />
        </mxCell>
        <mxCell id="zQnf5BKZiq_Y63WzG17X-10" value="+ intensité: type intensité&#xa;+ probabilité" style="text;strokeColor=none;fillColor=none;align=left;verticalAlign=top;spacingLeft=4;spacingRight=4;overflow=hidden;rotatable=0;points=[[0,0.5],[1,0.5]];portConstraint=eastwest;rounded=1;fontSize=17;" parent="zQnf5BKZiq_Y63WzG17X-9" vertex="1">
          <mxGeometry y="26" width="160" height="44" as="geometry" />
        </mxCell>
        <mxCell id="zQnf5BKZiq_Y63WzG17X-11" value="" style="line;strokeWidth=1;fillColor=none;align=left;verticalAlign=middle;spacingTop=-1;spacingLeft=3;spacingRight=3;rotatable=0;labelPosition=right;points=[];portConstraint=eastwest;rounded=1;fontSize=17;" parent="zQnf5BKZiq_Y63WzG17X-9" vertex="1">
          <mxGeometry y="70" width="160" height="8" as="geometry" />
        </mxCell>
        <mxCell id="zQnf5BKZiq_Y63WzG17X-12" style="edgeStyle=orthogonalEdgeStyle;orthogonalLoop=1;jettySize=auto;html=1;exitX=0.5;exitY=0;exitDx=0;exitDy=0;endArrow=none;endFill=0;dashed=1;entryX=0.5;entryY=1;entryDx=0;entryDy=0;rounded=1;fontSize=17;" parent="1" source="zQnf5BKZiq_Y63WzG17X-14" target="zQnf5BKZiq_Y63WzG17X-17" edge="1">
          <mxGeometry relative="1" as="geometry">
            <mxPoint x="60" y="-790" as="targetPoint" />
            <Array as="points">
              <mxPoint x="60" y="-750" />
              <mxPoint x="60" y="-750" />
            </Array>
          </mxGeometry>
        </mxCell>
        <mxCell id="zQnf5BKZiq_Y63WzG17X-13" style="edgeStyle=elbowEdgeStyle;orthogonalLoop=1;jettySize=auto;html=1;exitX=1;exitY=0.5;exitDx=0;exitDy=0;endArrow=none;endFill=0;rounded=1;fontSize=17;" parent="1" source="zQnf5BKZiq_Y63WzG17X-14" target="zQnf5BKZiq_Y63WzG17X-7" edge="1">
          <mxGeometry relative="1" as="geometry">
            <mxPoint x="210" y="-755" as="targetPoint" />
            <Array as="points">
              <mxPoint x="180" y="-700" />
            </Array>
          </mxGeometry>
        </mxCell>
        <mxCell id="zQnf5BKZiq_Y63WzG17X-14" value="" style="rhombus;aspect=fixed;rounded=1;fontSize=17;" parent="1" vertex="1">
          <mxGeometry x="50" y="-710" width="20" height="20" as="geometry" />
        </mxCell>
        <mxCell id="zQnf5BKZiq_Y63WzG17X-15" value="" style="endArrow=none;html=1;align=center;verticalAlign=bottom;labelBackgroundColor=none;edgeStyle=elbowEdgeStyle;rounded=1;fontSize=17;" parent="1" source="zQnf5BKZiq_Y63WzG17X-10" target="zQnf5BKZiq_Y63WzG17X-14" edge="1">
          <mxGeometry relative="1" as="geometry">
            <mxPoint x="-140" y="-700" as="sourcePoint" />
            <Array as="points">
              <mxPoint x="-70" y="-700" />
              <mxPoint x="-50" y="-700" />
            </Array>
          </mxGeometry>
        </mxCell>
        <mxCell id="zQnf5BKZiq_Y63WzG17X-16" value="" style="endArrow=none;html=1;align=center;verticalAlign=bottom;labelBackgroundColor=none;entryX=0.5;entryY=0;entryDx=0;entryDy=0;edgeStyle=elbowEdgeStyle;elbow=vertical;rounded=1;fontSize=17;" parent="1" source="zQnf5BKZiq_Y63WzG17X-14" target="zQnf5BKZiq_Y63WzG17X-1" edge="1">
          <mxGeometry relative="1" as="geometry">
            <mxPoint x="130" y="-700" as="targetPoint" />
          </mxGeometry>
        </mxCell>
        <mxCell id="zQnf5BKZiq_Y63WzG17X-17" value="Risque" style="swimlane;fontStyle=1;align=center;verticalAlign=top;childLayout=stackLayout;horizontal=1;startSize=26;horizontalStack=0;resizeParent=1;resizeParentMax=0;resizeLast=0;collapsible=1;marginBottom=0;rounded=1;fontSize=17;" parent="1" vertex="1">
          <mxGeometry x="-210" y="-1020" width="520" height="60" as="geometry" />
        </mxCell>
        <mxCell id="zQnf5BKZiq_Y63WzG17X-18" value="+ probabilité, éventualité d&#39;occurrence de l&#39;évén. dommageable: real" style="text;strokeColor=none;fillColor=none;align=left;verticalAlign=top;spacingLeft=4;spacingRight=4;overflow=hidden;rotatable=0;points=[[0,0.5],[1,0.5]];portConstraint=eastwest;rounded=1;fontSize=17;" parent="zQnf5BKZiq_Y63WzG17X-17" vertex="1">
          <mxGeometry y="26" width="520" height="26" as="geometry" />
        </mxCell>
        <mxCell id="zQnf5BKZiq_Y63WzG17X-19" value="" style="line;strokeWidth=1;fillColor=none;align=left;verticalAlign=middle;spacingTop=-1;spacingLeft=3;spacingRight=3;rotatable=0;labelPosition=right;points=[];portConstraint=eastwest;rounded=1;fontSize=17;" parent="zQnf5BKZiq_Y63WzG17X-17" vertex="1">
          <mxGeometry y="52" width="520" height="8" as="geometry" />
        </mxCell>
        <mxCell id="zQnf5BKZiq_Y63WzG17X-20" value="Type enjeu" style="swimlane;fontStyle=1;align=center;verticalAlign=top;childLayout=stackLayout;horizontal=1;startSize=26;horizontalStack=0;resizeParent=1;resizeParentMax=0;resizeLast=0;collapsible=1;marginBottom=0;rounded=1;fontSize=17;" parent="1" vertex="1">
          <mxGeometry x="337.5" y="-664.5" width="234.5" height="56" as="geometry" />
        </mxCell>
        <mxCell id="zQnf5BKZiq_Y63WzG17X-21" value="+ label: char (pop ou indiv)" style="text;strokeColor=none;fillColor=none;align=left;verticalAlign=top;spacingLeft=4;spacingRight=4;overflow=hidden;rotatable=0;points=[[0,0.5],[1,0.5]];portConstraint=eastwest;rounded=1;fontSize=17;" parent="zQnf5BKZiq_Y63WzG17X-20" vertex="1">
          <mxGeometry y="26" width="234.5" height="22" as="geometry" />
        </mxCell>
        <mxCell id="zQnf5BKZiq_Y63WzG17X-22" value="" style="line;strokeWidth=1;fillColor=none;align=left;verticalAlign=middle;spacingTop=-1;spacingLeft=3;spacingRight=3;rotatable=0;labelPosition=right;points=[];portConstraint=eastwest;rounded=1;fontSize=17;" parent="zQnf5BKZiq_Y63WzG17X-20" vertex="1">
          <mxGeometry y="48" width="234.5" height="8" as="geometry" />
        </mxCell>
        <mxCell id="zQnf5BKZiq_Y63WzG17X-23" value="1" style="text;html=1;align=center;verticalAlign=middle;resizable=0;points=[];autosize=1;strokeColor=none;fillColor=none;fontSize=17;fontFamily=Helvetica;rounded=1;" parent="1" vertex="1">
          <mxGeometry x="431" y="-789" width="39" height="39" as="geometry" />
        </mxCell>
        <mxCell id="zQnf5BKZiq_Y63WzG17X-24" value="*" style="text;html=1;align=center;verticalAlign=middle;resizable=0;points=[];autosize=1;strokeColor=none;fillColor=none;fontSize=17;fontFamily=Helvetica;rounded=1;" parent="1" vertex="1">
          <mxGeometry x="318.5" y="-719" width="39" height="39" as="geometry" />
        </mxCell>
        <mxCell id="zQnf5BKZiq_Y63WzG17X-25" style="edgeStyle=orthogonalEdgeStyle;rounded=1;orthogonalLoop=1;jettySize=auto;html=1;exitX=0.5;exitY=0;exitDx=0;exitDy=0;entryX=0.563;entryY=1.125;entryDx=0;entryDy=0;entryPerimeter=0;fontSize=17;endArrow=none;endFill=0;" parent="1" source="zQnf5BKZiq_Y63WzG17X-26" target="zQnf5BKZiq_Y63WzG17X-11" edge="1">
          <mxGeometry relative="1" as="geometry" />
        </mxCell>
        <mxCell id="zQnf5BKZiq_Y63WzG17X-26" value="Occurence de vecteurs" style="swimlane;fontStyle=1;align=center;verticalAlign=top;childLayout=stackLayout;horizontal=1;startSize=26;horizontalStack=0;resizeParent=1;resizeParentMax=0;resizeLast=0;collapsible=1;marginBottom=0;rounded=1;fontSize=17;" parent="1" vertex="1">
          <mxGeometry x="-361" y="-543.5" width="200" height="78" as="geometry" />
        </mxCell>
        <mxCell id="zQnf5BKZiq_Y63WzG17X-27" value="+ présence&#xa;+ abondance&#xa;&#xa;" style="text;strokeColor=none;fillColor=none;align=left;verticalAlign=top;spacingLeft=4;spacingRight=4;overflow=hidden;rotatable=0;points=[[0,0.5],[1,0.5]];portConstraint=eastwest;rounded=1;fontSize=17;" parent="zQnf5BKZiq_Y63WzG17X-26" vertex="1">
          <mxGeometry y="26" width="200" height="44" as="geometry" />
        </mxCell>
        <mxCell id="zQnf5BKZiq_Y63WzG17X-28" value="" style="line;strokeWidth=1;fillColor=none;align=left;verticalAlign=middle;spacingTop=-1;spacingLeft=3;spacingRight=3;rotatable=0;labelPosition=right;points=[];portConstraint=eastwest;rounded=1;fontSize=17;" parent="zQnf5BKZiq_Y63WzG17X-26" vertex="1">
          <mxGeometry y="70" width="200" height="8" as="geometry" />
        </mxCell>
        <mxCell id="zQnf5BKZiq_Y63WzG17X-29" style="edgeStyle=orthogonalEdgeStyle;rounded=1;orthogonalLoop=1;jettySize=auto;html=1;exitX=0.5;exitY=0;exitDx=0;exitDy=0;entryX=-0.01;entryY=0.086;entryDx=0;entryDy=0;entryPerimeter=0;fontSize=17;endArrow=none;endFill=0;" parent="1" source="zQnf5BKZiq_Y63WzG17X-30" target="zQnf5BKZiq_Y63WzG17X-10" edge="1">
          <mxGeometry relative="1" as="geometry" />
        </mxCell>
        <mxCell id="zQnf5BKZiq_Y63WzG17X-30" value="Piqure(s)" style="swimlane;fontStyle=1;align=center;verticalAlign=top;childLayout=stackLayout;horizontal=1;startSize=26;horizontalStack=0;resizeParent=1;resizeParentMax=0;resizeLast=0;collapsible=1;marginBottom=0;rounded=1;fontSize=17;" parent="1" vertex="1">
          <mxGeometry x="-526" y="-739" width="150" height="78" as="geometry" />
        </mxCell>
        <mxCell id="zQnf5BKZiq_Y63WzG17X-31" value="+ " style="text;strokeColor=none;fillColor=none;align=left;verticalAlign=top;spacingLeft=4;spacingRight=4;overflow=hidden;rotatable=0;points=[[0,0.5],[1,0.5]];portConstraint=eastwest;rounded=1;fontSize=17;" parent="zQnf5BKZiq_Y63WzG17X-30" vertex="1">
          <mxGeometry y="26" width="150" height="44" as="geometry" />
        </mxCell>
        <mxCell id="zQnf5BKZiq_Y63WzG17X-32" value="" style="line;strokeWidth=1;fillColor=none;align=left;verticalAlign=middle;spacingTop=-1;spacingLeft=3;spacingRight=3;rotatable=0;labelPosition=right;points=[];portConstraint=eastwest;rounded=1;fontSize=17;" parent="zQnf5BKZiq_Y63WzG17X-30" vertex="1">
          <mxGeometry y="70" width="150" height="8" as="geometry" />
        </mxCell>
        <mxCell id="zQnf5BKZiq_Y63WzG17X-33" value="Piqure(s) infectante(s)" style="swimlane;fontStyle=1;align=center;verticalAlign=top;childLayout=stackLayout;horizontal=1;startSize=26;horizontalStack=0;resizeParent=1;resizeParentMax=0;resizeLast=0;collapsible=1;marginBottom=0;rounded=1;fontSize=17;" parent="1" vertex="1">
          <mxGeometry x="-744" y="-880" width="200" height="68" as="geometry">
            <mxRectangle x="-430" y="200" width="180" height="26" as="alternateBounds" />
          </mxGeometry>
        </mxCell>
        <mxCell id="zQnf5BKZiq_Y63WzG17X-34" value="+" style="text;strokeColor=none;fillColor=none;align=left;verticalAlign=top;spacingLeft=4;spacingRight=4;overflow=hidden;rotatable=0;points=[[0,0.5],[1,0.5]];portConstraint=eastwest;rounded=1;fontSize=17;" parent="zQnf5BKZiq_Y63WzG17X-33" vertex="1">
          <mxGeometry y="26" width="200" height="34" as="geometry" />
        </mxCell>
        <mxCell id="zQnf5BKZiq_Y63WzG17X-35" value="" style="line;strokeWidth=1;fillColor=none;align=left;verticalAlign=middle;spacingTop=-1;spacingLeft=3;spacingRight=3;rotatable=0;labelPosition=right;points=[];portConstraint=eastwest;rounded=1;fontSize=17;" parent="zQnf5BKZiq_Y63WzG17X-33" vertex="1">
          <mxGeometry y="60" width="200" height="8" as="geometry" />
        </mxCell>
        <mxCell id="zQnf5BKZiq_Y63WzG17X-36" style="edgeStyle=orthogonalEdgeStyle;rounded=1;orthogonalLoop=1;jettySize=auto;html=1;exitX=0.5;exitY=0;exitDx=0;exitDy=0;entryX=0.5;entryY=1;entryDx=0;entryDy=0;fontSize=17;endArrow=none;endFill=0;" parent="1" source="zQnf5BKZiq_Y63WzG17X-37" target="zQnf5BKZiq_Y63WzG17X-26" edge="1">
          <mxGeometry relative="1" as="geometry" />
        </mxCell>
        <mxCell id="zQnf5BKZiq_Y63WzG17X-37" value="Présence de gîtes larvaires" style="swimlane;fontStyle=1;align=center;verticalAlign=top;childLayout=stackLayout;horizontal=1;startSize=26;horizontalStack=0;resizeParent=1;resizeParentMax=0;resizeLast=0;collapsible=1;marginBottom=0;rounded=1;fontSize=17;" parent="1" vertex="1">
          <mxGeometry x="-391" y="-427.5" width="230" height="110" as="geometry" />
        </mxCell>
        <mxCell id="zQnf5BKZiq_Y63WzG17X-38" value="+ localisation : geometry&#xa;+ densité&#xa;+ productivité&#xa;" style="text;strokeColor=none;fillColor=none;align=left;verticalAlign=top;spacingLeft=4;spacingRight=4;overflow=hidden;rotatable=0;points=[[0,0.5],[1,0.5]];portConstraint=eastwest;rounded=1;fontSize=17;" parent="zQnf5BKZiq_Y63WzG17X-37" vertex="1">
          <mxGeometry y="26" width="230" height="64" as="geometry" />
        </mxCell>
        <mxCell id="zQnf5BKZiq_Y63WzG17X-39" value="" style="line;strokeWidth=1;fillColor=none;align=left;verticalAlign=middle;spacingTop=-1;spacingLeft=3;spacingRight=3;rotatable=0;labelPosition=right;points=[];portConstraint=eastwest;rounded=1;fontSize=17;" parent="zQnf5BKZiq_Y63WzG17X-37" vertex="1">
          <mxGeometry y="90" width="230" height="20" as="geometry" />
        </mxCell>
        <mxCell id="zQnf5BKZiq_Y63WzG17X-41" style="edgeStyle=orthogonalEdgeStyle;rounded=1;orthogonalLoop=1;jettySize=auto;html=1;exitX=0.75;exitY=1;exitDx=0;exitDy=0;entryX=0;entryY=0.5;entryDx=0;entryDy=0;fontSize=17;endArrow=diamondThin;endFill=1;endSize=10;" parent="1" source="zQnf5BKZiq_Y63WzG17X-42" target="zQnf5BKZiq_Y63WzG17X-74" edge="1">
          <mxGeometry relative="1" as="geometry" />
        </mxCell>
        <mxCell id="zQnf5BKZiq_Y63WzG17X-196" style="edgeStyle=orthogonalEdgeStyle;curved=0;rounded=1;sketch=0;orthogonalLoop=1;jettySize=auto;html=1;exitX=0.25;exitY=0;exitDx=0;exitDy=0;endArrow=block;endFill=0;endSize=9;fontSize=17;" parent="1" source="zQnf5BKZiq_Y63WzG17X-42" edge="1">
          <mxGeometry relative="1" as="geometry">
            <mxPoint x="-504" y="-200" as="targetPoint" />
          </mxGeometry>
        </mxCell>
        <mxCell id="zQnf5BKZiq_Y63WzG17X-42" value="Occupation du sol" style="swimlane;fontStyle=1;align=center;verticalAlign=top;childLayout=stackLayout;horizontal=1;startSize=26;horizontalStack=0;resizeParent=1;resizeParentMax=0;resizeLast=0;collapsible=1;marginBottom=0;rounded=1;fontSize=17;" parent="1" vertex="1">
          <mxGeometry x="-550" y="-148.5" width="180" height="78" as="geometry" />
        </mxCell>
        <mxCell id="zQnf5BKZiq_Y63WzG17X-43" value="+" style="text;strokeColor=none;fillColor=none;align=left;verticalAlign=top;spacingLeft=4;spacingRight=4;overflow=hidden;rotatable=0;points=[[0,0.5],[1,0.5]];portConstraint=eastwest;rounded=1;fontSize=17;" parent="zQnf5BKZiq_Y63WzG17X-42" vertex="1">
          <mxGeometry y="26" width="180" height="44" as="geometry" />
        </mxCell>
        <mxCell id="zQnf5BKZiq_Y63WzG17X-44" value="" style="line;strokeWidth=1;fillColor=none;align=left;verticalAlign=middle;spacingTop=-1;spacingLeft=3;spacingRight=3;rotatable=0;labelPosition=right;points=[];portConstraint=eastwest;rounded=1;fontSize=17;" parent="zQnf5BKZiq_Y63WzG17X-42" vertex="1">
          <mxGeometry y="70" width="180" height="8" as="geometry" />
        </mxCell>
        <mxCell id="zQnf5BKZiq_Y63WzG17X-46" style="edgeStyle=orthogonalEdgeStyle;orthogonalLoop=1;jettySize=auto;html=1;exitX=0.5;exitY=0;exitDx=0;exitDy=0;entryX=0;entryY=0.5;entryDx=0;entryDy=0;endArrow=none;endFill=0;rounded=1;fontSize=17;" parent="1" source="zQnf5BKZiq_Y63WzG17X-47" target="zQnf5BKZiq_Y63WzG17X-198" edge="1">
          <mxGeometry relative="1" as="geometry">
            <Array as="points">
              <mxPoint x="-810" y="-140" />
              <mxPoint x="-810" y="-242" />
              <mxPoint x="-575" y="-242" />
            </Array>
          </mxGeometry>
        </mxCell>
        <mxCell id="zQnf5BKZiq_Y63WzG17X-47" value="Météorologie" style="swimlane;fontStyle=1;align=center;verticalAlign=top;childLayout=stackLayout;horizontal=1;startSize=26;horizontalStack=0;resizeParent=1;resizeParentMax=0;resizeLast=0;collapsible=1;marginBottom=0;rounded=1;fontSize=17;" parent="1" vertex="1">
          <mxGeometry x="-910" y="-140" width="210" height="78" as="geometry" />
        </mxCell>
        <mxCell id="zQnf5BKZiq_Y63WzG17X-48" value="+" style="text;strokeColor=none;fillColor=none;align=left;verticalAlign=top;spacingLeft=4;spacingRight=4;overflow=hidden;rotatable=0;points=[[0,0.5],[1,0.5]];portConstraint=eastwest;rounded=1;fontSize=17;" parent="zQnf5BKZiq_Y63WzG17X-47" vertex="1">
          <mxGeometry y="26" width="210" height="44" as="geometry" />
        </mxCell>
        <mxCell id="zQnf5BKZiq_Y63WzG17X-49" value="" style="line;strokeWidth=1;fillColor=none;align=left;verticalAlign=middle;spacingTop=-1;spacingLeft=3;spacingRight=3;rotatable=0;labelPosition=right;points=[];portConstraint=eastwest;rounded=1;fontSize=17;" parent="zQnf5BKZiq_Y63WzG17X-47" vertex="1">
          <mxGeometry y="70" width="210" height="8" as="geometry" />
        </mxCell>
        <mxCell id="zQnf5BKZiq_Y63WzG17X-51" style="edgeStyle=orthogonalEdgeStyle;orthogonalLoop=1;jettySize=auto;html=1;exitX=0.5;exitY=0;exitDx=0;exitDy=0;endArrow=block;endFill=0;rounded=1;fontSize=17;endSize=10;entryX=0.609;entryY=0.929;entryDx=0;entryDy=0;entryPerimeter=0;" parent="1" source="zQnf5BKZiq_Y63WzG17X-52" target="zQnf5BKZiq_Y63WzG17X-49" edge="1">
          <mxGeometry relative="1" as="geometry">
            <mxPoint x="-780" y="-34" as="targetPoint" />
          </mxGeometry>
        </mxCell>
        <mxCell id="zQnf5BKZiq_Y63WzG17X-52" value="Température" style="swimlane;fontStyle=1;align=center;verticalAlign=top;childLayout=stackLayout;horizontal=1;startSize=26;horizontalStack=0;resizeParent=1;resizeParentMax=0;resizeLast=0;collapsible=1;marginBottom=0;rounded=1;fontSize=17;" parent="1" vertex="1">
          <mxGeometry x="-800" y="8.5" width="180" height="78" as="geometry" />
        </mxCell>
        <mxCell id="zQnf5BKZiq_Y63WzG17X-53" value="+" style="text;strokeColor=none;fillColor=none;align=left;verticalAlign=top;spacingLeft=4;spacingRight=4;overflow=hidden;rotatable=0;points=[[0,0.5],[1,0.5]];portConstraint=eastwest;rounded=1;fontSize=17;" parent="zQnf5BKZiq_Y63WzG17X-52" vertex="1">
          <mxGeometry y="26" width="180" height="44" as="geometry" />
        </mxCell>
        <mxCell id="zQnf5BKZiq_Y63WzG17X-54" value="" style="line;strokeWidth=1;fillColor=none;align=left;verticalAlign=middle;spacingTop=-1;spacingLeft=3;spacingRight=3;rotatable=0;labelPosition=right;points=[];portConstraint=eastwest;rounded=1;fontSize=17;" parent="zQnf5BKZiq_Y63WzG17X-52" vertex="1">
          <mxGeometry y="70" width="180" height="8" as="geometry" />
        </mxCell>
        <mxCell id="zQnf5BKZiq_Y63WzG17X-55" value="Agent pathogène" style="swimlane;fontStyle=1;align=center;verticalAlign=top;childLayout=stackLayout;horizontal=1;startSize=26;horizontalStack=0;resizeParent=1;resizeParentMax=0;resizeLast=0;collapsible=1;marginBottom=0;rounded=1;fontSize=17;" parent="1" vertex="1">
          <mxGeometry x="-1050" y="-686" width="150" height="36" as="geometry" />
        </mxCell>
        <mxCell id="zQnf5BKZiq_Y63WzG17X-56" value="" style="line;strokeWidth=1;fillColor=none;align=left;verticalAlign=middle;spacingTop=-1;spacingLeft=3;spacingRight=3;rotatable=0;labelPosition=right;points=[];portConstraint=eastwest;rounded=1;fontSize=17;" parent="zQnf5BKZiq_Y63WzG17X-55" vertex="1">
          <mxGeometry y="26" width="150" height="10" as="geometry" />
        </mxCell>
        <mxCell id="zQnf5BKZiq_Y63WzG17X-57" style="edgeStyle=orthogonalEdgeStyle;orthogonalLoop=1;jettySize=auto;html=1;entryX=0.008;entryY=0.158;entryDx=0;entryDy=0;endArrow=block;endFill=0;rounded=1;fontSize=17;entryPerimeter=0;" parent="1" target="zQnf5BKZiq_Y63WzG17X-146" edge="1">
          <mxGeometry relative="1" as="geometry">
            <mxPoint x="-900" y="-667" as="sourcePoint" />
          </mxGeometry>
        </mxCell>
        <mxCell id="zQnf5BKZiq_Y63WzG17X-58" style="edgeStyle=orthogonalEdgeStyle;orthogonalLoop=1;jettySize=auto;html=1;entryX=0.012;entryY=0.285;entryDx=0;entryDy=0;entryPerimeter=0;endArrow=diamondThin;endFill=1;rounded=1;fontSize=17;endSize=10;" parent="1" source="zQnf5BKZiq_Y63WzG17X-60" target="zQnf5BKZiq_Y63WzG17X-27" edge="1">
          <mxGeometry relative="1" as="geometry" />
        </mxCell>
        <mxCell id="zQnf5BKZiq_Y63WzG17X-59" style="edgeStyle=orthogonalEdgeStyle;rounded=1;orthogonalLoop=1;jettySize=auto;html=1;exitX=0.5;exitY=0;exitDx=0;exitDy=0;fontSize=17;endArrow=none;endFill=0;entryX=0.453;entryY=1.077;entryDx=0;entryDy=0;entryPerimeter=0;" parent="1" source="zQnf5BKZiq_Y63WzG17X-60" target="zQnf5BKZiq_Y63WzG17X-32" edge="1">
          <mxGeometry relative="1" as="geometry">
            <mxPoint x="-495.1428571428569" y="-760" as="targetPoint" />
          </mxGeometry>
        </mxCell>
        <mxCell id="zQnf5BKZiq_Y63WzG17X-60" value="Vecteurs" style="swimlane;fontStyle=1;align=center;verticalAlign=top;childLayout=stackLayout;horizontal=1;startSize=26;horizontalStack=0;resizeParent=1;resizeParentMax=0;resizeLast=0;collapsible=1;marginBottom=0;rounded=1;fontSize=17;" parent="1" vertex="1">
          <mxGeometry x="-585" y="-543.5" width="180" height="78" as="geometry" />
        </mxCell>
        <mxCell id="zQnf5BKZiq_Y63WzG17X-61" value="+ localisation : geometry&#xa;" style="text;strokeColor=none;fillColor=none;align=left;verticalAlign=top;spacingLeft=4;spacingRight=4;overflow=hidden;rotatable=0;points=[[0,0.5],[1,0.5]];portConstraint=eastwest;rounded=1;fontSize=17;" parent="zQnf5BKZiq_Y63WzG17X-60" vertex="1">
          <mxGeometry y="26" width="180" height="44" as="geometry" />
        </mxCell>
        <mxCell id="zQnf5BKZiq_Y63WzG17X-62" value="" style="line;strokeWidth=1;fillColor=none;align=left;verticalAlign=middle;spacingTop=-1;spacingLeft=3;spacingRight=3;rotatable=0;labelPosition=right;points=[];portConstraint=eastwest;rounded=1;fontSize=17;" parent="zQnf5BKZiq_Y63WzG17X-60" vertex="1">
          <mxGeometry y="70" width="180" height="8" as="geometry" />
        </mxCell>
        <mxCell id="zQnf5BKZiq_Y63WzG17X-63" style="edgeStyle=orthogonalEdgeStyle;rounded=1;orthogonalLoop=1;jettySize=auto;html=1;exitX=0.5;exitY=0;exitDx=0;exitDy=0;entryX=0.5;entryY=1;entryDx=0;entryDy=0;fontSize=17;endArrow=block;endFill=0;endSize=10;" parent="1" source="zQnf5BKZiq_Y63WzG17X-64" target="zQnf5BKZiq_Y63WzG17X-145" edge="1">
          <mxGeometry relative="1" as="geometry" />
        </mxCell>
        <mxCell id="zQnf5BKZiq_Y63WzG17X-64" value="Aedes" style="swimlane;fontStyle=1;align=center;verticalAlign=top;childLayout=stackLayout;horizontal=1;startSize=26;horizontalStack=0;resizeParent=1;resizeParentMax=0;resizeLast=0;collapsible=1;marginBottom=0;rounded=1;fontSize=17;" parent="1" vertex="1">
          <mxGeometry x="-725" y="-437" width="120" height="60" as="geometry" />
        </mxCell>
        <mxCell id="zQnf5BKZiq_Y63WzG17X-65" value="+ espèce: char" style="text;strokeColor=none;fillColor=none;align=left;verticalAlign=top;spacingLeft=4;spacingRight=4;overflow=hidden;rotatable=0;points=[[0,0.5],[1,0.5]];portConstraint=eastwest;rounded=1;fontSize=17;" parent="zQnf5BKZiq_Y63WzG17X-64" vertex="1">
          <mxGeometry y="26" width="120" height="24" as="geometry" />
        </mxCell>
        <mxCell id="zQnf5BKZiq_Y63WzG17X-66" value="" style="line;strokeWidth=1;fillColor=none;align=left;verticalAlign=middle;spacingTop=-1;spacingLeft=3;spacingRight=3;rotatable=0;labelPosition=right;points=[];portConstraint=eastwest;rounded=1;fontSize=17;" parent="zQnf5BKZiq_Y63WzG17X-64" vertex="1">
          <mxGeometry y="50" width="120" height="10" as="geometry" />
        </mxCell>
        <mxCell id="zQnf5BKZiq_Y63WzG17X-67" value="Contribue" style="text;html=1;strokeColor=none;fillColor=none;align=center;verticalAlign=middle;whiteSpace=wrap;rounded=1;fontSize=17;" parent="1" vertex="1">
          <mxGeometry x="-465" y="-330" width="60" height="30" as="geometry" />
        </mxCell>
        <mxCell id="zQnf5BKZiq_Y63WzG17X-68" style="edgeStyle=orthogonalEdgeStyle;orthogonalLoop=1;jettySize=auto;html=1;exitX=0.5;exitY=0;exitDx=0;exitDy=0;entryX=0.371;entryY=1.107;entryDx=0;entryDy=0;endArrow=block;endFill=0;rounded=1;fontSize=17;endSize=10;entryPerimeter=0;" parent="1" source="zQnf5BKZiq_Y63WzG17X-69" target="zQnf5BKZiq_Y63WzG17X-49" edge="1">
          <mxGeometry relative="1" as="geometry" />
        </mxCell>
        <mxCell id="zQnf5BKZiq_Y63WzG17X-69" value="Précipitation" style="swimlane;fontStyle=1;align=center;verticalAlign=top;childLayout=stackLayout;horizontal=1;startSize=26;horizontalStack=0;resizeParent=1;resizeParentMax=0;resizeLast=0;collapsible=1;marginBottom=0;rounded=1;fontSize=17;" parent="1" vertex="1">
          <mxGeometry x="-990" y="8.5" width="180" height="78" as="geometry" />
        </mxCell>
        <mxCell id="zQnf5BKZiq_Y63WzG17X-70" value="+" style="text;strokeColor=none;fillColor=none;align=left;verticalAlign=top;spacingLeft=4;spacingRight=4;overflow=hidden;rotatable=0;points=[[0,0.5],[1,0.5]];portConstraint=eastwest;rounded=1;fontSize=17;" parent="zQnf5BKZiq_Y63WzG17X-69" vertex="1">
          <mxGeometry y="26" width="180" height="44" as="geometry" />
        </mxCell>
        <mxCell id="zQnf5BKZiq_Y63WzG17X-71" value="" style="line;strokeWidth=1;fillColor=none;align=left;verticalAlign=middle;spacingTop=-1;spacingLeft=3;spacingRight=3;rotatable=0;labelPosition=right;points=[];portConstraint=eastwest;rounded=1;fontSize=17;" parent="zQnf5BKZiq_Y63WzG17X-69" vertex="1">
          <mxGeometry y="70" width="180" height="8" as="geometry" />
        </mxCell>
        <mxCell id="zQnf5BKZiq_Y63WzG17X-72" value="Contribue" style="text;html=1;strokeColor=none;fillColor=none;align=center;verticalAlign=middle;whiteSpace=wrap;rounded=1;fontSize=17;" parent="1" vertex="1">
          <mxGeometry x="-730" y="-273.5" width="60" height="30" as="geometry" />
        </mxCell>
        <mxCell id="zQnf5BKZiq_Y63WzG17X-73" value="Paysages" style="swimlane;fontStyle=1;align=center;verticalAlign=top;childLayout=stackLayout;horizontal=1;startSize=26;horizontalStack=0;resizeParent=1;resizeParentMax=0;resizeLast=0;collapsible=1;marginBottom=0;rounded=1;fontSize=17;" parent="1" vertex="1">
          <mxGeometry x="-191" y="-217.5" width="181" height="118" as="geometry">
            <mxRectangle x="320" y="370" width="90" height="26" as="alternateBounds" />
          </mxGeometry>
        </mxCell>
        <mxCell id="zQnf5BKZiq_Y63WzG17X-74" value="+ composition&#xa;+ structure&#xa;+ configuration" style="text;strokeColor=none;fillColor=none;align=left;verticalAlign=top;spacingLeft=4;spacingRight=4;overflow=hidden;rotatable=0;points=[[0,0.5],[1,0.5]];portConstraint=eastwest;rounded=1;fontSize=17;" parent="zQnf5BKZiq_Y63WzG17X-73" vertex="1">
          <mxGeometry y="26" width="181" height="84" as="geometry" />
        </mxCell>
        <mxCell id="zQnf5BKZiq_Y63WzG17X-75" value="" style="line;strokeWidth=1;fillColor=none;align=left;verticalAlign=middle;spacingTop=-1;spacingLeft=3;spacingRight=3;rotatable=0;labelPosition=right;points=[];portConstraint=eastwest;rounded=1;fontSize=17;" parent="zQnf5BKZiq_Y63WzG17X-73" vertex="1">
          <mxGeometry y="110" width="181" height="8" as="geometry" />
        </mxCell>
        <mxCell id="zQnf5BKZiq_Y63WzG17X-76" value="Urbain" style="swimlane;fontStyle=1;align=center;verticalAlign=top;childLayout=stackLayout;horizontal=1;startSize=26;horizontalStack=0;resizeParent=1;resizeParentMax=0;resizeLast=0;collapsible=1;marginBottom=0;rounded=1;fontSize=17;" parent="1" vertex="1">
          <mxGeometry x="-468" y="68" width="110" height="78" as="geometry" />
        </mxCell>
        <mxCell id="zQnf5BKZiq_Y63WzG17X-77" value="+ type" style="text;strokeColor=none;fillColor=none;align=left;verticalAlign=top;spacingLeft=4;spacingRight=4;overflow=hidden;rotatable=0;points=[[0,0.5],[1,0.5]];portConstraint=eastwest;rounded=1;fontSize=17;" parent="zQnf5BKZiq_Y63WzG17X-76" vertex="1">
          <mxGeometry y="26" width="110" height="44" as="geometry" />
        </mxCell>
        <mxCell id="zQnf5BKZiq_Y63WzG17X-78" value="" style="line;strokeWidth=1;fillColor=none;align=left;verticalAlign=middle;spacingTop=-1;spacingLeft=3;spacingRight=3;rotatable=0;labelPosition=right;points=[];portConstraint=eastwest;rounded=1;fontSize=17;" parent="zQnf5BKZiq_Y63WzG17X-76" vertex="1">
          <mxGeometry y="70" width="110" height="8" as="geometry" />
        </mxCell>
        <mxCell id="zQnf5BKZiq_Y63WzG17X-79" style="edgeStyle=orthogonalEdgeStyle;rounded=1;orthogonalLoop=1;jettySize=auto;html=1;exitX=0.25;exitY=0;exitDx=0;exitDy=0;fontSize=17;endArrow=block;endFill=0;endSize=10;entryX=0.5;entryY=1;entryDx=0;entryDy=0;" parent="1" source="zQnf5BKZiq_Y63WzG17X-80" target="zQnf5BKZiq_Y63WzG17X-42" edge="1">
          <mxGeometry relative="1" as="geometry">
            <mxPoint x="-480" y="-170" as="targetPoint" />
          </mxGeometry>
        </mxCell>
        <mxCell id="zQnf5BKZiq_Y63WzG17X-80" value="Végétation" style="swimlane;fontStyle=1;align=center;verticalAlign=top;childLayout=stackLayout;horizontal=1;startSize=26;horizontalStack=0;resizeParent=1;resizeParentMax=0;resizeLast=0;collapsible=1;marginBottom=0;rounded=1;fontSize=17;" parent="1" vertex="1">
          <mxGeometry x="-340" y="68" width="110" height="78" as="geometry" />
        </mxCell>
        <mxCell id="zQnf5BKZiq_Y63WzG17X-81" value="+ type" style="text;strokeColor=none;fillColor=none;align=left;verticalAlign=top;spacingLeft=4;spacingRight=4;overflow=hidden;rotatable=0;points=[[0,0.5],[1,0.5]];portConstraint=eastwest;rounded=1;fontSize=17;" parent="zQnf5BKZiq_Y63WzG17X-80" vertex="1">
          <mxGeometry y="26" width="110" height="44" as="geometry" />
        </mxCell>
        <mxCell id="zQnf5BKZiq_Y63WzG17X-82" value="" style="line;strokeWidth=1;fillColor=none;align=left;verticalAlign=middle;spacingTop=-1;spacingLeft=3;spacingRight=3;rotatable=0;labelPosition=right;points=[];portConstraint=eastwest;rounded=1;fontSize=17;" parent="zQnf5BKZiq_Y63WzG17X-80" vertex="1">
          <mxGeometry y="70" width="110" height="8" as="geometry" />
        </mxCell>
        <mxCell id="zQnf5BKZiq_Y63WzG17X-83" style="edgeStyle=orthogonalEdgeStyle;rounded=1;orthogonalLoop=1;jettySize=auto;html=1;exitX=0;exitY=0.5;exitDx=0;exitDy=0;entryX=0.25;entryY=1;entryDx=0;entryDy=0;endArrow=block;endFill=0;fontSize=17;endSize=10;" parent="1" source="zQnf5BKZiq_Y63WzG17X-77" target="zQnf5BKZiq_Y63WzG17X-42" edge="1">
          <mxGeometry relative="1" as="geometry" />
        </mxCell>
        <mxCell id="zQnf5BKZiq_Y63WzG17X-84" style="edgeStyle=orthogonalEdgeStyle;curved=0;rounded=1;sketch=0;orthogonalLoop=1;jettySize=auto;html=1;exitX=0.5;exitY=0;exitDx=0;exitDy=0;entryX=0.5;entryY=1;entryDx=0;entryDy=0;endSize=8;endArrow=block;endFill=0;fontSize=17;" parent="1" edge="1">
          <mxGeometry relative="1" as="geometry">
            <mxPoint x="-805" y="-49.999999999999545" as="targetPoint" />
            <mxPoint x="-804.9999999999995" y="116" as="sourcePoint" />
          </mxGeometry>
        </mxCell>
        <mxCell id="zQnf5BKZiq_Y63WzG17X-85" value="Humidité" style="swimlane;fontStyle=1;align=center;verticalAlign=top;childLayout=stackLayout;horizontal=1;startSize=26;horizontalStack=0;resizeParent=1;resizeParentMax=0;resizeLast=0;collapsible=1;marginBottom=0;rounded=1;fontSize=17;" parent="1" vertex="1">
          <mxGeometry x="-895" y="110" width="180" height="78" as="geometry" />
        </mxCell>
        <mxCell id="zQnf5BKZiq_Y63WzG17X-87" value="" style="line;strokeWidth=1;fillColor=none;align=left;verticalAlign=middle;spacingTop=-1;spacingLeft=3;spacingRight=3;rotatable=0;labelPosition=right;points=[];portConstraint=eastwest;rounded=1;fontSize=17;" parent="zQnf5BKZiq_Y63WzG17X-85" vertex="1">
          <mxGeometry y="26" width="180" height="8" as="geometry" />
        </mxCell>
        <mxCell id="zQnf5BKZiq_Y63WzG17X-86" value="+" style="text;strokeColor=none;fillColor=none;align=left;verticalAlign=top;spacingLeft=4;spacingRight=4;overflow=hidden;rotatable=0;points=[[0,0.5],[1,0.5]];portConstraint=eastwest;rounded=1;fontSize=17;" parent="zQnf5BKZiq_Y63WzG17X-85" vertex="1">
          <mxGeometry y="34" width="180" height="44" as="geometry" />
        </mxCell>
        <mxCell id="zQnf5BKZiq_Y63WzG17X-88" style="edgeStyle=orthogonalEdgeStyle;rounded=1;orthogonalLoop=1;jettySize=auto;html=1;exitX=0.5;exitY=0;exitDx=0;exitDy=0;entryX=0.5;entryY=1;entryDx=0;entryDy=0;fontSize=17;endArrow=none;endFill=0;" parent="1" source="zQnf5BKZiq_Y63WzG17X-73" target="zQnf5BKZiq_Y63WzG17X-1" edge="1">
          <mxGeometry relative="1" as="geometry">
            <mxPoint x="42.500000000000455" y="-340" as="sourcePoint" />
          </mxGeometry>
        </mxCell>
        <mxCell id="zQnf5BKZiq_Y63WzG17X-92" style="edgeStyle=orthogonalEdgeStyle;rounded=1;orthogonalLoop=1;jettySize=auto;html=1;exitX=0.5;exitY=0;exitDx=0;exitDy=0;entryX=0.75;entryY=1;entryDx=0;entryDy=0;fontSize=17;endArrow=none;endFill=0;" parent="1" source="zQnf5BKZiq_Y63WzG17X-93" target="zQnf5BKZiq_Y63WzG17X-1" edge="1">
          <mxGeometry relative="1" as="geometry">
            <Array as="points">
              <mxPoint x="110" y="-366" />
              <mxPoint x="110" y="-590" />
            </Array>
          </mxGeometry>
        </mxCell>
        <mxCell id="zQnf5BKZiq_Y63WzG17X-93" value="Capacité à faire face " style="swimlane;fontStyle=1;align=center;verticalAlign=top;childLayout=stackLayout;horizontal=1;startSize=26;horizontalStack=0;resizeParent=1;resizeParentMax=0;resizeLast=0;collapsible=1;marginBottom=0;rounded=1;fontSize=17;" parent="1" vertex="1">
          <mxGeometry x="50" y="-366.5" width="240" height="60" as="geometry">
            <mxRectangle x="320" y="370" width="90" height="26" as="alternateBounds" />
          </mxGeometry>
        </mxCell>
        <mxCell id="zQnf5BKZiq_Y63WzG17X-94" value="+&#xa; " style="text;strokeColor=none;fillColor=none;align=left;verticalAlign=top;spacingLeft=4;spacingRight=4;overflow=hidden;rotatable=0;points=[[0,0.5],[1,0.5]];portConstraint=eastwest;rounded=1;fontSize=17;" parent="zQnf5BKZiq_Y63WzG17X-93" vertex="1">
          <mxGeometry y="26" width="240" height="26" as="geometry" />
        </mxCell>
        <mxCell id="zQnf5BKZiq_Y63WzG17X-95" value="" style="line;strokeWidth=1;fillColor=none;align=left;verticalAlign=middle;spacingTop=-1;spacingLeft=3;spacingRight=3;rotatable=0;labelPosition=right;points=[];portConstraint=eastwest;rounded=1;fontSize=17;" parent="zQnf5BKZiq_Y63WzG17X-93" vertex="1">
          <mxGeometry y="52" width="240" height="8" as="geometry" />
        </mxCell>
        <mxCell id="zQnf5BKZiq_Y63WzG17X-101" style="edgeStyle=orthogonalEdgeStyle;rounded=1;orthogonalLoop=1;jettySize=auto;html=1;exitX=0.5;exitY=0;exitDx=0;exitDy=0;fontSize=17;endArrow=block;endFill=0;endSize=10;entryX=0.5;entryY=1;entryDx=0;entryDy=0;" parent="1" source="zQnf5BKZiq_Y63WzG17X-102" target="zQnf5BKZiq_Y63WzG17X-93" edge="1">
          <mxGeometry relative="1" as="geometry">
            <mxPoint x="140" y="-230" as="targetPoint" />
          </mxGeometry>
        </mxCell>
        <mxCell id="zQnf5BKZiq_Y63WzG17X-102" value="Action locale" style="swimlane;fontStyle=1;align=center;verticalAlign=top;childLayout=stackLayout;horizontal=1;startSize=26;horizontalStack=0;resizeParent=1;resizeParentMax=0;resizeLast=0;collapsible=1;marginBottom=0;rounded=1;fontSize=17;" parent="1" vertex="1">
          <mxGeometry x="110" y="-243.5" width="120" height="34" as="geometry">
            <mxRectangle x="320" y="370" width="90" height="26" as="alternateBounds" />
          </mxGeometry>
        </mxCell>
        <mxCell id="zQnf5BKZiq_Y63WzG17X-103" value="" style="line;strokeWidth=1;fillColor=none;align=left;verticalAlign=middle;spacingTop=-1;spacingLeft=3;spacingRight=3;rotatable=0;labelPosition=right;points=[];portConstraint=eastwest;rounded=1;fontSize=17;" parent="zQnf5BKZiq_Y63WzG17X-102" vertex="1">
          <mxGeometry y="26" width="120" height="8" as="geometry" />
        </mxCell>
        <mxCell id="zQnf5BKZiq_Y63WzG17X-116" style="edgeStyle=orthogonalEdgeStyle;rounded=1;orthogonalLoop=1;jettySize=auto;html=1;exitX=0.5;exitY=0;exitDx=0;exitDy=0;entryX=0.5;entryY=1;entryDx=0;entryDy=0;fontSize=17;endArrow=block;endFill=0;endSize=10;" parent="1" source="zQnf5BKZiq_Y63WzG17X-117" target="zQnf5BKZiq_Y63WzG17X-55" edge="1">
          <mxGeometry relative="1" as="geometry" />
        </mxCell>
        <mxCell id="zQnf5BKZiq_Y63WzG17X-117" value="Virus" style="swimlane;fontStyle=1;align=center;verticalAlign=top;childLayout=stackLayout;horizontal=1;startSize=26;horizontalStack=0;resizeParent=1;resizeParentMax=0;resizeLast=0;collapsible=1;marginBottom=0;rounded=1;fontSize=17;" parent="1" vertex="1">
          <mxGeometry x="-1050" y="-600" width="150" height="36" as="geometry" />
        </mxCell>
        <mxCell id="zQnf5BKZiq_Y63WzG17X-118" value="" style="line;strokeWidth=1;fillColor=none;align=left;verticalAlign=middle;spacingTop=-1;spacingLeft=3;spacingRight=3;rotatable=0;labelPosition=right;points=[];portConstraint=eastwest;rounded=1;fontSize=17;" parent="zQnf5BKZiq_Y63WzG17X-117" vertex="1">
          <mxGeometry y="26" width="150" height="10" as="geometry" />
        </mxCell>
        <mxCell id="zQnf5BKZiq_Y63WzG17X-119" style="edgeStyle=orthogonalEdgeStyle;rounded=1;orthogonalLoop=1;jettySize=auto;html=1;exitX=0.5;exitY=0;exitDx=0;exitDy=0;fontSize=17;endArrow=block;endFill=0;endSize=10;" parent="1" source="zQnf5BKZiq_Y63WzG17X-120" edge="1">
          <mxGeometry relative="1" as="geometry">
            <mxPoint x="-990" y="-560" as="targetPoint" />
          </mxGeometry>
        </mxCell>
        <mxCell id="zQnf5BKZiq_Y63WzG17X-120" value="Dengue" style="swimlane;fontStyle=1;align=center;verticalAlign=top;childLayout=stackLayout;horizontal=1;startSize=26;horizontalStack=0;resizeParent=1;resizeParentMax=0;resizeLast=0;collapsible=1;marginBottom=0;rounded=1;fontSize=17;" parent="1" vertex="1">
          <mxGeometry x="-1020" y="-350" width="160" height="60" as="geometry" />
        </mxCell>
        <mxCell id="zQnf5BKZiq_Y63WzG17X-121" value="+ genre:char (flavivirus)" style="text;strokeColor=none;fillColor=none;align=left;verticalAlign=top;spacingLeft=4;spacingRight=4;overflow=hidden;rotatable=0;points=[[0,0.5],[1,0.5]];portConstraint=eastwest;rounded=1;fontSize=17;" parent="zQnf5BKZiq_Y63WzG17X-120" vertex="1">
          <mxGeometry y="26" width="160" height="24" as="geometry" />
        </mxCell>
        <mxCell id="zQnf5BKZiq_Y63WzG17X-122" value="" style="line;strokeWidth=1;fillColor=none;align=left;verticalAlign=middle;spacingTop=-1;spacingLeft=3;spacingRight=3;rotatable=0;labelPosition=right;points=[];portConstraint=eastwest;rounded=1;fontSize=17;" parent="zQnf5BKZiq_Y63WzG17X-120" vertex="1">
          <mxGeometry y="50" width="160" height="10" as="geometry" />
        </mxCell>
        <mxCell id="zQnf5BKZiq_Y63WzG17X-123" style="edgeStyle=orthogonalEdgeStyle;rounded=1;orthogonalLoop=1;jettySize=auto;html=1;exitX=0.5;exitY=0;exitDx=0;exitDy=0;fontSize=17;endArrow=block;endFill=0;endSize=10;entryX=0.182;entryY=1.067;entryDx=0;entryDy=0;entryPerimeter=0;" parent="1" source="zQnf5BKZiq_Y63WzG17X-124" edge="1" target="zQnf5BKZiq_Y63WzG17X-118">
          <mxGeometry relative="1" as="geometry">
            <mxPoint x="-970" y="-560" as="targetPoint" />
            <Array as="points">
              <mxPoint x="-1050" y="-440" />
              <mxPoint x="-1023" y="-440" />
            </Array>
          </mxGeometry>
        </mxCell>
        <mxCell id="zQnf5BKZiq_Y63WzG17X-124" value="Zika" style="swimlane;fontStyle=1;align=center;verticalAlign=top;childLayout=stackLayout;horizontal=1;startSize=26;horizontalStack=0;resizeParent=1;resizeParentMax=0;resizeLast=0;collapsible=1;marginBottom=0;rounded=1;fontSize=17;" parent="1" vertex="1">
          <mxGeometry x="-1130" y="-425.5" width="160" height="60" as="geometry" />
        </mxCell>
        <mxCell id="zQnf5BKZiq_Y63WzG17X-125" value="+ genre:char (flavivirus)" style="text;strokeColor=none;fillColor=none;align=left;verticalAlign=top;spacingLeft=4;spacingRight=4;overflow=hidden;rotatable=0;points=[[0,0.5],[1,0.5]];portConstraint=eastwest;rounded=1;fontSize=17;" parent="zQnf5BKZiq_Y63WzG17X-124" vertex="1">
          <mxGeometry y="26" width="160" height="24" as="geometry" />
        </mxCell>
        <mxCell id="zQnf5BKZiq_Y63WzG17X-126" value="" style="line;strokeWidth=1;fillColor=none;align=left;verticalAlign=middle;spacingTop=-1;spacingLeft=3;spacingRight=3;rotatable=0;labelPosition=right;points=[];portConstraint=eastwest;rounded=1;fontSize=17;" parent="zQnf5BKZiq_Y63WzG17X-124" vertex="1">
          <mxGeometry y="50" width="160" height="10" as="geometry" />
        </mxCell>
        <mxCell id="zQnf5BKZiq_Y63WzG17X-127" style="edgeStyle=orthogonalEdgeStyle;rounded=1;orthogonalLoop=1;jettySize=auto;html=1;exitX=0.5;exitY=0;exitDx=0;exitDy=0;fontSize=17;endArrow=block;endFill=0;endSize=10;" parent="1" source="zQnf5BKZiq_Y63WzG17X-128" edge="1">
          <mxGeometry relative="1" as="geometry">
            <mxPoint x="-960" y="-560" as="targetPoint" />
          </mxGeometry>
        </mxCell>
        <mxCell id="zQnf5BKZiq_Y63WzG17X-128" value="Chikungunya" style="swimlane;fontStyle=1;align=center;verticalAlign=top;childLayout=stackLayout;horizontal=1;startSize=26;horizontalStack=0;resizeParent=1;resizeParentMax=0;resizeLast=0;collapsible=1;marginBottom=0;rounded=1;fontSize=17;arcSize=0;" parent="1" vertex="1">
          <mxGeometry x="-930" y="-425.5" width="170" height="60" as="geometry" />
        </mxCell>
        <mxCell id="zQnf5BKZiq_Y63WzG17X-129" value="+ genre:char (alphavirus)" style="text;strokeColor=none;fillColor=none;align=left;verticalAlign=top;spacingLeft=4;spacingRight=4;overflow=hidden;rotatable=0;points=[[0,0.5],[1,0.5]];portConstraint=eastwest;rounded=1;fontSize=17;" parent="zQnf5BKZiq_Y63WzG17X-128" vertex="1">
          <mxGeometry y="26" width="170" height="24" as="geometry" />
        </mxCell>
        <mxCell id="zQnf5BKZiq_Y63WzG17X-130" value="" style="line;strokeWidth=1;fillColor=none;align=left;verticalAlign=middle;spacingTop=-1;spacingLeft=3;spacingRight=3;rotatable=0;labelPosition=right;points=[];portConstraint=eastwest;rounded=1;fontSize=17;" parent="zQnf5BKZiq_Y63WzG17X-128" vertex="1">
          <mxGeometry y="50" width="170" height="10" as="geometry" />
        </mxCell>
        <mxCell id="zQnf5BKZiq_Y63WzG17X-131" style="edgeStyle=orthogonalEdgeStyle;rounded=1;orthogonalLoop=1;jettySize=auto;html=1;exitX=0.5;exitY=0;exitDx=0;exitDy=0;entryX=0;entryY=1;entryDx=0;entryDy=0;fontSize=17;endArrow=block;endFill=0;endSize=10;" parent="1" source="zQnf5BKZiq_Y63WzG17X-132" target="zQnf5BKZiq_Y63WzG17X-117" edge="1">
          <mxGeometry relative="1" as="geometry" />
        </mxCell>
        <mxCell id="zQnf5BKZiq_Y63WzG17X-132" value="Fièvre jaune" style="swimlane;fontStyle=1;align=center;verticalAlign=top;childLayout=stackLayout;horizontal=1;startSize=26;horizontalStack=0;resizeParent=1;resizeParentMax=0;resizeLast=0;collapsible=1;marginBottom=0;rounded=1;fontSize=17;" parent="1" vertex="1">
          <mxGeometry x="-1230" y="-345" width="180" height="60" as="geometry" />
        </mxCell>
        <mxCell id="zQnf5BKZiq_Y63WzG17X-133" value="+ genre:char (flavivirus)" style="text;strokeColor=none;fillColor=none;align=left;verticalAlign=top;spacingLeft=4;spacingRight=4;overflow=hidden;rotatable=0;points=[[0,0.5],[1,0.5]];portConstraint=eastwest;rounded=1;fontSize=17;" parent="zQnf5BKZiq_Y63WzG17X-132" vertex="1">
          <mxGeometry y="26" width="180" height="24" as="geometry" />
        </mxCell>
        <mxCell id="zQnf5BKZiq_Y63WzG17X-134" value="" style="line;strokeWidth=1;fillColor=none;align=left;verticalAlign=middle;spacingTop=-1;spacingLeft=3;spacingRight=3;rotatable=0;labelPosition=right;points=[];portConstraint=eastwest;rounded=1;fontSize=17;" parent="zQnf5BKZiq_Y63WzG17X-132" vertex="1">
          <mxGeometry y="50" width="180" height="10" as="geometry" />
        </mxCell>
        <mxCell id="zQnf5BKZiq_Y63WzG17X-135" value="Lieu" style="swimlane;fontStyle=1;align=center;verticalAlign=top;childLayout=stackLayout;horizontal=1;startSize=26;horizontalStack=0;resizeParent=1;resizeParentMax=0;resizeLast=0;collapsible=1;marginBottom=0;rounded=1;fontSize=17;" parent="1" vertex="1">
          <mxGeometry x="380" y="-303.5" width="190" height="60" as="geometry">
            <mxRectangle x="320" y="370" width="90" height="26" as="alternateBounds" />
          </mxGeometry>
        </mxCell>
        <mxCell id="zQnf5BKZiq_Y63WzG17X-136" value="+ lat, long&#xa; &#xa;" style="text;strokeColor=none;fillColor=none;align=left;verticalAlign=top;spacingLeft=4;spacingRight=4;overflow=hidden;rotatable=0;points=[[0,0.5],[1,0.5]];portConstraint=eastwest;rounded=1;fontSize=17;" parent="zQnf5BKZiq_Y63WzG17X-135" vertex="1">
          <mxGeometry y="26" width="190" height="26" as="geometry" />
        </mxCell>
        <mxCell id="zQnf5BKZiq_Y63WzG17X-137" value="" style="line;strokeWidth=1;fillColor=none;align=left;verticalAlign=middle;spacingTop=-1;spacingLeft=3;spacingRight=3;rotatable=0;labelPosition=right;points=[];portConstraint=eastwest;rounded=1;fontSize=17;" parent="zQnf5BKZiq_Y63WzG17X-135" vertex="1">
          <mxGeometry y="52" width="190" height="8" as="geometry" />
        </mxCell>
        <mxCell id="zQnf5BKZiq_Y63WzG17X-138" value="est un&amp;nbsp;" style="text;html=1;strokeColor=none;fillColor=none;align=center;verticalAlign=middle;whiteSpace=wrap;rounded=0;fontSize=17;" parent="1" vertex="1">
          <mxGeometry x="-1050" y="-470" width="60" height="30" as="geometry" />
        </mxCell>
        <mxCell id="zQnf5BKZiq_Y63WzG17X-139" value="est un&amp;nbsp;" style="text;html=1;strokeColor=none;fillColor=none;align=center;verticalAlign=middle;whiteSpace=wrap;rounded=0;fontSize=17;" parent="1" vertex="1">
          <mxGeometry x="-1150" y="-480" width="60" height="30" as="geometry" />
        </mxCell>
        <mxCell id="zQnf5BKZiq_Y63WzG17X-140" value="est un&amp;nbsp;" style="text;html=1;strokeColor=none;fillColor=none;align=center;verticalAlign=middle;whiteSpace=wrap;rounded=0;fontSize=17;" parent="1" vertex="1">
          <mxGeometry x="-990" y="-480" width="70" height="30" as="geometry" />
        </mxCell>
        <mxCell id="zQnf5BKZiq_Y63WzG17X-141" value="est un&amp;nbsp;" style="text;html=1;strokeColor=none;fillColor=none;align=center;verticalAlign=middle;whiteSpace=wrap;rounded=0;fontSize=17;" parent="1" vertex="1">
          <mxGeometry x="-920" y="-520" width="60" height="30" as="geometry" />
        </mxCell>
        <mxCell id="zQnf5BKZiq_Y63WzG17X-142" value="est un&amp;nbsp;" style="text;html=1;strokeColor=none;fillColor=none;align=center;verticalAlign=middle;whiteSpace=wrap;rounded=0;fontSize=17;" parent="1" vertex="1">
          <mxGeometry x="-1050" y="-642" width="60" height="30" as="geometry" />
        </mxCell>
        <mxCell id="zQnf5BKZiq_Y63WzG17X-143" value="engendre" style="text;html=1;strokeColor=none;fillColor=none;align=center;verticalAlign=middle;whiteSpace=wrap;rounded=0;fontSize=17;" parent="1" vertex="1">
          <mxGeometry x="-860" y="-700" width="60" height="30" as="geometry" />
        </mxCell>
        <mxCell id="zQnf5BKZiq_Y63WzG17X-144" style="edgeStyle=orthogonalEdgeStyle;rounded=1;orthogonalLoop=1;jettySize=auto;html=1;exitX=0.5;exitY=0;exitDx=0;exitDy=0;entryX=0.5;entryY=1;entryDx=0;entryDy=0;fontSize=17;endArrow=none;endFill=0;" parent="1" source="zQnf5BKZiq_Y63WzG17X-145" target="zQnf5BKZiq_Y63WzG17X-33" edge="1">
          <mxGeometry relative="1" as="geometry" />
        </mxCell>
        <mxCell id="zQnf5BKZiq_Y63WzG17X-145" value="Vecteurs infectées" style="swimlane;fontStyle=1;align=center;verticalAlign=top;childLayout=stackLayout;horizontal=1;startSize=26;horizontalStack=0;resizeParent=1;resizeParentMax=0;resizeLast=0;collapsible=1;marginBottom=0;rounded=1;fontSize=17;" parent="1" vertex="1">
          <mxGeometry x="-755" y="-742.5" width="180" height="78" as="geometry" />
        </mxCell>
        <mxCell id="zQnf5BKZiq_Y63WzG17X-146" value="+ localisation : geometry&#xa;" style="text;strokeColor=none;fillColor=none;align=left;verticalAlign=top;spacingLeft=4;spacingRight=4;overflow=hidden;rotatable=0;points=[[0,0.5],[1,0.5]];portConstraint=eastwest;rounded=1;fontSize=17;" parent="zQnf5BKZiq_Y63WzG17X-145" vertex="1">
          <mxGeometry y="26" width="180" height="44" as="geometry" />
        </mxCell>
        <mxCell id="zQnf5BKZiq_Y63WzG17X-147" value="" style="line;strokeWidth=1;fillColor=none;align=left;verticalAlign=middle;spacingTop=-1;spacingLeft=3;spacingRight=3;rotatable=0;labelPosition=right;points=[];portConstraint=eastwest;rounded=1;fontSize=17;" parent="zQnf5BKZiq_Y63WzG17X-145" vertex="1">
          <mxGeometry y="70" width="180" height="8" as="geometry" />
        </mxCell>
        <mxCell id="zQnf5BKZiq_Y63WzG17X-148" style="edgeStyle=orthogonalEdgeStyle;rounded=1;orthogonalLoop=1;jettySize=auto;html=1;exitX=0.5;exitY=0;exitDx=0;exitDy=0;entryX=0.5;entryY=1;entryDx=0;entryDy=0;fontSize=17;endArrow=block;endFill=0;endSize=10;" parent="1" source="zQnf5BKZiq_Y63WzG17X-149" target="zQnf5BKZiq_Y63WzG17X-20" edge="1">
          <mxGeometry relative="1" as="geometry" />
        </mxCell>
        <mxCell id="zQnf5BKZiq_Y63WzG17X-178" style="edgeStyle=orthogonalEdgeStyle;curved=0;rounded=1;sketch=0;orthogonalLoop=1;jettySize=auto;html=1;exitX=0.5;exitY=1;exitDx=0;exitDy=0;fontSize=17;" parent="1" source="zQnf5BKZiq_Y63WzG17X-149" target="zQnf5BKZiq_Y63WzG17X-135" edge="1">
          <mxGeometry relative="1" as="geometry" />
        </mxCell>
        <mxCell id="zQnf5BKZiq_Y63WzG17X-149" value="Indiviu humain&#xa;" style="swimlane;fontStyle=1;align=center;verticalAlign=top;childLayout=stackLayout;horizontal=1;startSize=26;horizontalStack=0;resizeParent=1;resizeParentMax=0;resizeLast=0;collapsible=1;marginBottom=0;rounded=1;fontSize=17;" parent="1" vertex="1">
          <mxGeometry x="317.5" y="-553.5" width="220" height="128" as="geometry" />
        </mxCell>
        <mxCell id="zQnf5BKZiq_Y63WzG17X-150" value="+ âge&#xa;+héritage génétique &#xa;+pratiques culturelles&#xa;+connaissances" style="text;strokeColor=none;fillColor=none;align=left;verticalAlign=top;spacingLeft=4;spacingRight=4;overflow=hidden;rotatable=0;points=[[0,0.5],[1,0.5]];portConstraint=eastwest;rounded=1;fontSize=17;" parent="zQnf5BKZiq_Y63WzG17X-149" vertex="1">
          <mxGeometry y="26" width="220" height="94" as="geometry" />
        </mxCell>
        <mxCell id="zQnf5BKZiq_Y63WzG17X-151" value="" style="line;strokeWidth=1;fillColor=none;align=left;verticalAlign=middle;spacingTop=-1;spacingLeft=3;spacingRight=3;rotatable=0;labelPosition=right;points=[];portConstraint=eastwest;rounded=1;fontSize=17;" parent="zQnf5BKZiq_Y63WzG17X-149" vertex="1">
          <mxGeometry y="120" width="220" height="8" as="geometry" />
        </mxCell>
        <mxCell id="zQnf5BKZiq_Y63WzG17X-152" style="edgeStyle=orthogonalEdgeStyle;rounded=1;orthogonalLoop=1;jettySize=auto;html=1;exitX=0.5;exitY=0;exitDx=0;exitDy=0;entryX=0.615;entryY=0.957;entryDx=0;entryDy=0;entryPerimeter=0;fontSize=17;endArrow=block;endFill=0;strokeWidth=1;endSize=10;" parent="1" source="zQnf5BKZiq_Y63WzG17X-153" target="zQnf5BKZiq_Y63WzG17X-22" edge="1">
          <mxGeometry relative="1" as="geometry" />
        </mxCell>
        <mxCell id="zQnf5BKZiq_Y63WzG17X-179" style="edgeStyle=orthogonalEdgeStyle;curved=0;rounded=1;sketch=0;orthogonalLoop=1;jettySize=auto;html=1;exitX=0.5;exitY=1;exitDx=0;exitDy=0;entryX=1.021;entryY=0.108;entryDx=0;entryDy=0;entryPerimeter=0;fontSize=17;" parent="1" source="zQnf5BKZiq_Y63WzG17X-153" target="zQnf5BKZiq_Y63WzG17X-136" edge="1">
          <mxGeometry relative="1" as="geometry" />
        </mxCell>
        <mxCell id="zQnf5BKZiq_Y63WzG17X-153" value="Population humaine&#xa;" style="swimlane;fontStyle=1;align=center;verticalAlign=top;childLayout=stackLayout;horizontal=1;startSize=26;horizontalStack=0;resizeParent=1;resizeParentMax=0;resizeLast=0;collapsible=1;marginBottom=0;rounded=1;fontSize=17;" parent="1" vertex="1">
          <mxGeometry x="560" y="-553.5" width="230" height="128" as="geometry" />
        </mxCell>
        <mxCell id="zQnf5BKZiq_Y63WzG17X-154" value="+ densité" style="text;strokeColor=none;fillColor=none;align=left;verticalAlign=top;spacingLeft=4;spacingRight=4;overflow=hidden;rotatable=0;points=[[0,0.5],[1,0.5]];portConstraint=eastwest;rounded=1;fontSize=17;" parent="zQnf5BKZiq_Y63WzG17X-153" vertex="1">
          <mxGeometry y="26" width="230" height="94" as="geometry" />
        </mxCell>
        <mxCell id="zQnf5BKZiq_Y63WzG17X-155" value="" style="line;strokeWidth=1;fillColor=none;align=left;verticalAlign=middle;spacingTop=-1;spacingLeft=3;spacingRight=3;rotatable=0;labelPosition=right;points=[];portConstraint=eastwest;rounded=1;fontSize=17;" parent="zQnf5BKZiq_Y63WzG17X-153" vertex="1">
          <mxGeometry y="120" width="230" height="8" as="geometry" />
        </mxCell>
        <mxCell id="zQnf5BKZiq_Y63WzG17X-156" value="Emergence" style="text;html=1;strokeColor=none;fillColor=none;align=center;verticalAlign=middle;whiteSpace=wrap;rounded=1;fontSize=17;" parent="1" vertex="1">
          <mxGeometry x="-481" y="-400" width="60" height="33.5" as="geometry" />
        </mxCell>
        <mxCell id="zQnf5BKZiq_Y63WzG17X-157" style="edgeStyle=orthogonalEdgeStyle;rounded=1;orthogonalLoop=1;jettySize=auto;html=1;exitX=1;exitY=0.5;exitDx=0;exitDy=0;entryX=0;entryY=0.25;entryDx=0;entryDy=0;fontSize=17;endArrow=none;endFill=0;" parent="1" source="zQnf5BKZiq_Y63WzG17X-34" target="zQnf5BKZiq_Y63WzG17X-9" edge="1">
          <mxGeometry relative="1" as="geometry" />
        </mxCell>
        <mxCell id="zQnf5BKZiq_Y63WzG17X-158" style="edgeStyle=orthogonalEdgeStyle;rounded=1;orthogonalLoop=1;jettySize=auto;html=1;exitX=1;exitY=0.5;exitDx=0;exitDy=0;entryX=0.25;entryY=1;entryDx=0;entryDy=0;fontSize=17;endArrow=block;endFill=0;endSize=10;" parent="1" source="zQnf5BKZiq_Y63WzG17X-65" target="zQnf5BKZiq_Y63WzG17X-60" edge="1">
          <mxGeometry relative="1" as="geometry" />
        </mxCell>
        <mxCell id="zQnf5BKZiq_Y63WzG17X-159" style="edgeStyle=orthogonalEdgeStyle;rounded=1;orthogonalLoop=1;jettySize=auto;html=1;exitX=0;exitY=0.5;exitDx=0;exitDy=0;entryX=0.5;entryY=1;entryDx=0;entryDy=0;fontSize=17;endArrow=none;endFill=0;" parent="1" source="zQnf5BKZiq_Y63WzG17X-38" target="zQnf5BKZiq_Y63WzG17X-60" edge="1">
          <mxGeometry relative="1" as="geometry" />
        </mxCell>
        <mxCell id="zQnf5BKZiq_Y63WzG17X-163" value="Forme" style="text;html=1;strokeColor=none;fillColor=none;align=center;verticalAlign=middle;whiteSpace=wrap;rounded=1;fontSize=17;" parent="1" vertex="1">
          <mxGeometry x="-358" y="-80" width="60" height="30" as="geometry" />
        </mxCell>
        <mxCell id="zQnf5BKZiq_Y63WzG17X-168" style="edgeStyle=orthogonalEdgeStyle;rounded=1;orthogonalLoop=1;jettySize=auto;html=1;exitX=0.5;exitY=1;exitDx=0;exitDy=0;fontSize=17;endArrow=block;endFill=0;endSize=10;" parent="1" edge="1">
          <mxGeometry relative="1" as="geometry">
            <mxPoint x="-579.9999999999995" y="-10" as="sourcePoint" />
            <mxPoint x="-579.9999999999995" y="-10" as="targetPoint" />
          </mxGeometry>
        </mxCell>
        <mxCell id="zQnf5BKZiq_Y63WzG17X-170" value="&lt;font style=&quot;font-size: 17px;&quot;&gt;augmente&lt;/font&gt;" style="text;html=1;strokeColor=none;fillColor=none;align=center;verticalAlign=middle;whiteSpace=wrap;rounded=0;dashed=1;labelBorderColor=none;sketch=1;fontSize=17;" parent="1" vertex="1">
          <mxGeometry x="180" y="-283.5" width="60" height="33.5" as="geometry" />
        </mxCell>
        <mxCell id="zQnf5BKZiq_Y63WzG17X-192" style="edgeStyle=orthogonalEdgeStyle;curved=0;rounded=1;sketch=0;orthogonalLoop=1;jettySize=auto;html=1;exitX=0.5;exitY=0;exitDx=0;exitDy=0;entryX=0.5;entryY=1;entryDx=0;entryDy=0;endArrow=block;endFill=0;endSize=9;fontSize=17;" parent="1" source="zQnf5BKZiq_Y63WzG17X-181" target="zQnf5BKZiq_Y63WzG17X-135" edge="1">
          <mxGeometry relative="1" as="geometry" />
        </mxCell>
        <mxCell id="zQnf5BKZiq_Y63WzG17X-181" value="Résidence" style="swimlane;fontStyle=1;align=center;verticalAlign=top;childLayout=stackLayout;horizontal=1;startSize=26;horizontalStack=0;resizeParent=1;resizeParentMax=0;resizeLast=0;collapsible=1;marginBottom=0;rounded=1;fontSize=17;" parent="1" vertex="1">
          <mxGeometry x="340" y="-190" width="190" height="60" as="geometry">
            <mxRectangle x="320" y="370" width="90" height="26" as="alternateBounds" />
          </mxGeometry>
        </mxCell>
        <mxCell id="zQnf5BKZiq_Y63WzG17X-182" value="+ lat, long&#xa; &#xa;" style="text;strokeColor=none;fillColor=none;align=left;verticalAlign=top;spacingLeft=4;spacingRight=4;overflow=hidden;rotatable=0;points=[[0,0.5],[1,0.5]];portConstraint=eastwest;rounded=1;fontSize=17;" parent="zQnf5BKZiq_Y63WzG17X-181" vertex="1">
          <mxGeometry y="26" width="190" height="26" as="geometry" />
        </mxCell>
        <mxCell id="zQnf5BKZiq_Y63WzG17X-183" value="" style="line;strokeWidth=1;fillColor=none;align=left;verticalAlign=middle;spacingTop=-1;spacingLeft=3;spacingRight=3;rotatable=0;labelPosition=right;points=[];portConstraint=eastwest;rounded=1;fontSize=17;" parent="zQnf5BKZiq_Y63WzG17X-181" vertex="1">
          <mxGeometry y="52" width="190" height="8" as="geometry" />
        </mxCell>
        <mxCell id="zQnf5BKZiq_Y63WzG17X-193" style="edgeStyle=orthogonalEdgeStyle;curved=0;rounded=1;sketch=0;orthogonalLoop=1;jettySize=auto;html=1;exitX=0.5;exitY=0;exitDx=0;exitDy=0;entryX=0.558;entryY=1.02;entryDx=0;entryDy=0;entryPerimeter=0;endArrow=block;endFill=0;endSize=9;fontSize=17;" parent="1" source="zQnf5BKZiq_Y63WzG17X-184" target="zQnf5BKZiq_Y63WzG17X-137" edge="1">
          <mxGeometry relative="1" as="geometry" />
        </mxCell>
        <mxCell id="zQnf5BKZiq_Y63WzG17X-184" value="Activités H" style="swimlane;fontStyle=1;align=center;verticalAlign=top;childLayout=stackLayout;horizontal=1;startSize=26;horizontalStack=0;resizeParent=1;resizeParentMax=0;resizeLast=0;collapsible=1;marginBottom=0;rounded=1;fontSize=17;" parent="1" vertex="1">
          <mxGeometry x="550" y="-190" width="190" height="60" as="geometry">
            <mxRectangle x="320" y="370" width="90" height="26" as="alternateBounds" />
          </mxGeometry>
        </mxCell>
        <mxCell id="zQnf5BKZiq_Y63WzG17X-185" value="+ lat, long&#xa; &#xa;" style="text;strokeColor=none;fillColor=none;align=left;verticalAlign=top;spacingLeft=4;spacingRight=4;overflow=hidden;rotatable=0;points=[[0,0.5],[1,0.5]];portConstraint=eastwest;rounded=1;fontSize=17;" parent="zQnf5BKZiq_Y63WzG17X-184" vertex="1">
          <mxGeometry y="26" width="190" height="26" as="geometry" />
        </mxCell>
        <mxCell id="zQnf5BKZiq_Y63WzG17X-186" value="" style="line;strokeWidth=1;fillColor=none;align=left;verticalAlign=middle;spacingTop=-1;spacingLeft=3;spacingRight=3;rotatable=0;labelPosition=right;points=[];portConstraint=eastwest;rounded=1;fontSize=17;" parent="zQnf5BKZiq_Y63WzG17X-184" vertex="1">
          <mxGeometry y="52" width="190" height="8" as="geometry" />
        </mxCell>
        <mxCell id="zQnf5BKZiq_Y63WzG17X-190" style="edgeStyle=orthogonalEdgeStyle;curved=0;rounded=1;sketch=0;orthogonalLoop=1;jettySize=auto;html=1;exitX=1;exitY=0.5;exitDx=0;exitDy=0;endArrow=none;endFill=0;fontSize=17;" parent="1" source="zQnf5BKZiq_Y63WzG17X-48" edge="1">
          <mxGeometry relative="1" as="geometry">
            <mxPoint x="10.000000000000455" y="-590" as="targetPoint" />
            <Array as="points">
              <mxPoint x="-600" y="-92" />
              <mxPoint x="-600" y="190" />
              <mxPoint x="10" y="190" />
            </Array>
          </mxGeometry>
        </mxCell>
        <mxCell id="zQnf5BKZiq_Y63WzG17X-191" style="edgeStyle=orthogonalEdgeStyle;curved=0;rounded=1;sketch=0;orthogonalLoop=1;jettySize=auto;html=1;exitX=1;exitY=0.5;exitDx=0;exitDy=0;entryX=0;entryY=0.5;entryDx=0;entryDy=0;fontSize=17;" parent="1" source="zQnf5BKZiq_Y63WzG17X-74" target="zQnf5BKZiq_Y63WzG17X-136" edge="1">
          <mxGeometry relative="1" as="geometry">
            <Array as="points">
              <mxPoint x="280" y="-149" />
              <mxPoint x="280" y="-264" />
            </Array>
          </mxGeometry>
        </mxCell>
        <mxCell id="zQnf5BKZiq_Y63WzG17X-200" style="edgeStyle=orthogonalEdgeStyle;curved=0;rounded=1;sketch=0;orthogonalLoop=1;jettySize=auto;html=1;exitX=0.5;exitY=0;exitDx=0;exitDy=0;endArrow=block;endFill=0;endSize=9;fontSize=17;" parent="1" source="zQnf5BKZiq_Y63WzG17X-197" edge="1">
          <mxGeometry relative="1" as="geometry">
            <mxPoint x="-299.99999999999955" y="-320" as="targetPoint" />
            <Array as="points">
              <mxPoint x="-485" y="-300" />
              <mxPoint x="-300" y="-300" />
            </Array>
          </mxGeometry>
        </mxCell>
        <mxCell id="zQnf5BKZiq_Y63WzG17X-197" value="Habitat favorable" style="swimlane;fontStyle=1;align=center;verticalAlign=top;childLayout=stackLayout;horizontal=1;startSize=26;horizontalStack=0;resizeParent=1;resizeParentMax=0;resizeLast=0;collapsible=1;marginBottom=0;rounded=1;fontSize=17;" parent="1" vertex="1">
          <mxGeometry x="-575" y="-280" width="180" height="78" as="geometry" />
        </mxCell>
        <mxCell id="zQnf5BKZiq_Y63WzG17X-198" value="+" style="text;strokeColor=none;fillColor=none;align=left;verticalAlign=top;spacingLeft=4;spacingRight=4;overflow=hidden;rotatable=0;points=[[0,0.5],[1,0.5]];portConstraint=eastwest;rounded=1;fontSize=17;" parent="zQnf5BKZiq_Y63WzG17X-197" vertex="1">
          <mxGeometry y="26" width="180" height="44" as="geometry" />
        </mxCell>
        <mxCell id="zQnf5BKZiq_Y63WzG17X-199" value="" style="line;strokeWidth=1;fillColor=none;align=left;verticalAlign=middle;spacingTop=-1;spacingLeft=3;spacingRight=3;rotatable=0;labelPosition=right;points=[];portConstraint=eastwest;rounded=1;fontSize=17;" parent="zQnf5BKZiq_Y63WzG17X-197" vertex="1">
          <mxGeometry y="70" width="180" height="8" as="geometry" />
        </mxCell>
        <mxCell id="zQnf5BKZiq_Y63WzG17X-201" style="edgeStyle=orthogonalEdgeStyle;curved=0;rounded=1;sketch=0;orthogonalLoop=1;jettySize=auto;html=1;exitX=1;exitY=0.5;exitDx=0;exitDy=0;entryX=0.017;entryY=0.086;entryDx=0;entryDy=0;entryPerimeter=0;endArrow=diamondThin;endFill=1;endSize=9;fontSize=17;" parent="1" source="zQnf5BKZiq_Y63WzG17X-198" target="zQnf5BKZiq_Y63WzG17X-74" edge="1">
          <mxGeometry relative="1" as="geometry" />
        </mxCell>
        <mxCell id="zQnf5BKZiq_Y63WzG17X-205" style="edgeStyle=orthogonalEdgeStyle;curved=0;rounded=1;sketch=0;orthogonalLoop=1;jettySize=auto;html=1;exitX=0;exitY=0.5;exitDx=0;exitDy=0;entryX=0;entryY=0.5;entryDx=0;entryDy=0;endArrow=diamondThin;endFill=0;endSize=9;fontSize=17;" parent="1" source="zQnf5BKZiq_Y63WzG17X-182" target="zQnf5BKZiq_Y63WzG17X-150" edge="1">
          <mxGeometry relative="1" as="geometry" />
        </mxCell>
        <mxCell id="zQnf5BKZiq_Y63WzG17X-206" style="edgeStyle=orthogonalEdgeStyle;curved=0;rounded=1;sketch=0;orthogonalLoop=1;jettySize=auto;html=1;exitX=1;exitY=0.5;exitDx=0;exitDy=0;entryX=1;entryY=0.5;entryDx=0;entryDy=0;endArrow=diamondThin;endFill=0;endSize=9;fontSize=17;" parent="1" source="zQnf5BKZiq_Y63WzG17X-185" target="zQnf5BKZiq_Y63WzG17X-154" edge="1">
          <mxGeometry relative="1" as="geometry" />
        </mxCell>
        <mxCell id="JtQrQxS5eNEEIULB_gXq-18" style="edgeStyle=orthogonalEdgeStyle;rounded=0;orthogonalLoop=1;jettySize=auto;html=1;exitX=0.5;exitY=1;exitDx=0;exitDy=0;entryX=0.25;entryY=0;entryDx=0;entryDy=0;fontSize=17;" edge="1" parent="1" source="JtQrQxS5eNEEIULB_gXq-4" target="zQnf5BKZiq_Y63WzG17X-17">
          <mxGeometry relative="1" as="geometry" />
        </mxCell>
        <mxCell id="JtQrQxS5eNEEIULB_gXq-4" value="Risque  de rencontre humain - vecteur" style="swimlane;fontStyle=1;align=center;verticalAlign=top;childLayout=stackLayout;horizontal=1;startSize=26;horizontalStack=0;resizeParent=1;resizeParentMax=0;resizeLast=0;collapsible=1;marginBottom=0;rounded=1;fontSize=17;" vertex="1" parent="1">
          <mxGeometry x="-507" y="-1120" width="347" height="34" as="geometry" />
        </mxCell>
        <mxCell id="JtQrQxS5eNEEIULB_gXq-6" value="" style="line;strokeWidth=1;fillColor=none;align=left;verticalAlign=middle;spacingTop=-1;spacingLeft=3;spacingRight=3;rotatable=0;labelPosition=right;points=[];portConstraint=eastwest;rounded=1;fontSize=17;" vertex="1" parent="JtQrQxS5eNEEIULB_gXq-4">
          <mxGeometry y="26" width="347" height="8" as="geometry" />
        </mxCell>
        <mxCell id="JtQrQxS5eNEEIULB_gXq-19" style="edgeStyle=orthogonalEdgeStyle;rounded=0;orthogonalLoop=1;jettySize=auto;html=1;exitX=0.5;exitY=1;exitDx=0;exitDy=0;entryX=0.422;entryY=-0.048;entryDx=0;entryDy=0;entryPerimeter=0;fontSize=17;" edge="1" parent="1" source="JtQrQxS5eNEEIULB_gXq-7" target="zQnf5BKZiq_Y63WzG17X-17">
          <mxGeometry relative="1" as="geometry" />
        </mxCell>
        <mxCell id="JtQrQxS5eNEEIULB_gXq-7" value="Risque  de piqûre" style="swimlane;fontStyle=1;align=center;verticalAlign=top;childLayout=stackLayout;horizontal=1;startSize=26;horizontalStack=0;resizeParent=1;resizeParentMax=0;resizeLast=0;collapsible=1;marginBottom=0;rounded=1;fontSize=17;" vertex="1" parent="1">
          <mxGeometry x="-140" y="-1120" width="190" height="34" as="geometry" />
        </mxCell>
        <mxCell id="JtQrQxS5eNEEIULB_gXq-8" value="" style="line;strokeWidth=1;fillColor=none;align=left;verticalAlign=middle;spacingTop=-1;spacingLeft=3;spacingRight=3;rotatable=0;labelPosition=right;points=[];portConstraint=eastwest;rounded=1;fontSize=17;" vertex="1" parent="JtQrQxS5eNEEIULB_gXq-7">
          <mxGeometry y="26" width="190" height="8" as="geometry" />
        </mxCell>
        <mxCell id="JtQrQxS5eNEEIULB_gXq-20" style="edgeStyle=orthogonalEdgeStyle;rounded=0;orthogonalLoop=1;jettySize=auto;html=1;exitX=0.5;exitY=1;exitDx=0;exitDy=0;entryX=0.635;entryY=-0.029;entryDx=0;entryDy=0;entryPerimeter=0;fontSize=17;" edge="1" parent="1" source="JtQrQxS5eNEEIULB_gXq-9" target="zQnf5BKZiq_Y63WzG17X-17">
          <mxGeometry relative="1" as="geometry" />
        </mxCell>
        <mxCell id="JtQrQxS5eNEEIULB_gXq-9" value="Risque  de piqûre infectante" style="swimlane;fontStyle=1;align=center;verticalAlign=top;childLayout=stackLayout;horizontal=1;startSize=26;horizontalStack=0;resizeParent=1;resizeParentMax=0;resizeLast=0;collapsible=1;marginBottom=0;rounded=1;fontSize=17;arcSize=50;" vertex="1" parent="1">
          <mxGeometry x="60" y="-1120" width="239" height="34" as="geometry" />
        </mxCell>
        <mxCell id="JtQrQxS5eNEEIULB_gXq-10" value="" style="line;strokeWidth=1;fillColor=none;align=left;verticalAlign=middle;spacingTop=-1;spacingLeft=3;spacingRight=3;rotatable=0;labelPosition=right;points=[];portConstraint=eastwest;rounded=1;fontSize=17;" vertex="1" parent="JtQrQxS5eNEEIULB_gXq-9">
          <mxGeometry y="26" width="239" height="8" as="geometry" />
        </mxCell>
        <mxCell id="JtQrQxS5eNEEIULB_gXq-21" style="edgeStyle=orthogonalEdgeStyle;rounded=0;orthogonalLoop=1;jettySize=auto;html=1;exitX=0.5;exitY=1;exitDx=0;exitDy=0;entryX=0.82;entryY=-0.048;entryDx=0;entryDy=0;entryPerimeter=0;fontSize=17;" edge="1" parent="1" source="JtQrQxS5eNEEIULB_gXq-11" target="zQnf5BKZiq_Y63WzG17X-17">
          <mxGeometry relative="1" as="geometry" />
        </mxCell>
        <mxCell id="JtQrQxS5eNEEIULB_gXq-11" value="Risque de cas de maladie" style="swimlane;fontStyle=1;align=center;verticalAlign=top;childLayout=stackLayout;horizontal=1;startSize=26;horizontalStack=0;resizeParent=1;resizeParentMax=0;resizeLast=0;collapsible=1;marginBottom=0;rounded=1;fontSize=17;arcSize=50;" vertex="1" parent="1">
          <mxGeometry x="310" y="-1120" width="236" height="34" as="geometry" />
        </mxCell>
        <mxCell id="JtQrQxS5eNEEIULB_gXq-12" value="" style="line;strokeWidth=1;fillColor=none;align=left;verticalAlign=middle;spacingTop=-1;spacingLeft=3;spacingRight=3;rotatable=0;labelPosition=right;points=[];portConstraint=eastwest;rounded=1;fontSize=17;" vertex="1" parent="JtQrQxS5eNEEIULB_gXq-11">
          <mxGeometry y="26" width="236" height="8" as="geometry" />
        </mxCell>
      </root>
    </mxGraphModel>
  </diagram>
</mxfile>
